<?xml version="1.0" encoding="UTF-8" standalone="no"?>
<svg
   xmlns:dc="http://purl.org/dc/elements/1.1/"
   xmlns:cc="http://creativecommons.org/ns#"
   xmlns:rdf="http://www.w3.org/1999/02/22-rdf-syntax-ns#"
   xmlns:svg="http://www.w3.org/2000/svg"
   xmlns="http://www.w3.org/2000/svg"
   id="svg8"
   version="1.1"
   viewBox="0 0 67.663322 72.399994"
   height="72.399994mm"
   width="67.663322mm">
  <defs
     id="defs2">
    <style
       id="style10">
      .cls-1 {
        fill: #707070;
        font-size: 100px;
        font-family: HelveticaNeue, Helvetica Neue;
      }
    </style>
  </defs>
  <metadata
     id="metadata5">
    <rdf:RDF>
      <cc:Work
         rdf:about="">
        <dc:format>image/svg+xml</dc:format>
        <dc:type
           rdf:resource="http://purl.org/dc/dcmitype/StillImage" />
        <dc:title></dc:title>
      </cc:Work>
    </rdf:RDF>
  </metadata>
  <g
     transform="translate(-16.061198,-9.1571446)"
     id="layer1">
    <path
       d="m 44.25,9.15625 c -9.393572,24.13459 -18.793454,48.26674 -28.189453,72.400391 3.593099,0 7.186198,0 10.779297,0 2.666667,-7.166667 5.333333,-14.333333 8,-21.5 9.833984,0 19.667969,0 29.501953,0 2.60026,7.166667 5.200521,14.333333 7.800781,21.5 3.860677,0 7.721354,0 11.582031,0 C 74.294271,57.423177 64.863932,33.289714 55.433594,9.15625 c -3.727865,0 -7.455729,0 -11.183594,0 z m 0.685547,1 c 3.271484,0 6.542969,0 9.814453,0 9.170573,23.466797 18.341146,46.933594 27.511719,70.400391 -3.139323,0 -6.278646,0 -9.417969,0 -2.60026,-7.166667 -5.200521,-14.333333 -7.800781,-21.5 -10.299479,0 -20.598959,0 -30.898438,0 -2.666667,7.166667 -5.333333,14.333333 -8,21.5 -2.873698,0 -5.747395,0 -8.621093,0 9.13737,-23.466797 18.274739,-46.933594 27.412109,-70.400391 z m 4.306641,7.601562 c -4.154297,11.432943 -8.308594,22.865886 -12.462891,34.298829 8.541016,0 17.082031,0 25.623047,0 -4.085938,-11.432943 -8.171875,-22.865886 -12.257813,-34.298829 -0.300781,0 -0.601562,0 -0.902343,0 z m 0.447265,1.699219 c 3.764323,10.533203 7.528646,21.066407 11.292969,31.59961 -7.591797,0 -15.183594,0 -22.775391,0 3.827474,-10.533203 7.654948,-21.066407 11.482422,-31.59961 z"
       style="color:#000000;font-style:normal;font-variant:normal;font-weight:normal;font-stretch:normal;font-size:100px;line-height:normal;font-family:HelveticaNeue, 'Helvetica Neue';font-variant-ligatures:normal;font-variant-position:normal;font-variant-caps:normal;font-variant-numeric:normal;font-variant-alternates:normal;font-variant-east-asian:normal;font-feature-settings:normal;font-variation-settings:normal;text-indent:0;text-align:start;text-decoration:none;text-decoration-line:none;text-decoration-style:solid;text-decoration-color:#000000;letter-spacing:normal;word-spacing:normal;text-transform:none;writing-mode:lr-tb;direction:ltr;text-orientation:mixed;dominant-baseline:auto;baseline-shift:baseline;text-anchor:start;white-space:normal;shape-padding:0;shape-margin:0;inline-size:0;clip-rule:nonzero;display:inline;overflow:visible;visibility:visible;opacity:1;isolation:auto;mix-blend-mode:normal;color-interpolation:sRGB;color-interpolation-filters:linearRGB;solid-color:#000000;solid-opacity:1;vector-effect:none;fill:#000000;fill-opacity:1;fill-rule:nonzero;stroke:none;stroke-width:1;stroke-linecap:butt;stroke-linejoin:miter;stroke-miterlimit:4;stroke-dasharray:none;stroke-dashoffset:0;stroke-opacity:1;color-rendering:auto;image-rendering:auto;shape-rendering:auto;text-rendering:auto;enable-background:accumulate;stop-color:#000000;stop-opacity:1"
       id="path174" />
  </g>
</svg>
