<svg xmlns="http://www.w3.org/2000/svg" width="897.442" height="737.776" viewBox="0 0 897.442 737.776">
  <g id="Group_1" data-name="Group 1" transform="translate(-15.864 72.57)">
    <path id="blob1" d="M762.346-51.408c61.786,38.148,59.157,144.231,49.3,227.32s-26.949,142.14-30.236,222.094,7.23,180.288-46.011,229.933c-53.241,49.122-170.24,47.032-267.52,25.606-97.28-20.9-175.5-62.186-279.351-98.244C85.33,519.243-44.815,487.366-73.736,427.27S-31.669,278.337,24.2,198.905C79.414,119.474,120.167,49.449,187.868,13.391,256.227-23.189,352.193-25.8,463.276-42.524S701.218-89.556,762.346-51.408Z" transform="translate(96.28 -2.745)" fill="#f4f4ff"/>
    <g id="books">
      <path id="Path_3" data-name="Path 3" d="M228.224,94H192.771c-.7.4-54.771,79.411-55.471,79.711V182.4l-.4,242.9,211.5-2.6L346.8,93.5l-64.4.5Z" fill="#e9edfb"/>
      <path id="Path_4" data-name="Path 4" d="M155,147.515V182.4l172.5-1-.7-62.1c-76.371,0-90.8-.63-117.6,0-8.15.191-31.868-.1-31.859,0,.067-.04-8.883.058-14.207,0-1.4-.017,13.72.132,11.748,0C174.055,119.237,156.167,146.886,155,147.515Z" fill="#b0c0f4"/>
      <path id="Path_5" data-name="Path 5" d="M155.1,192.5v61.3l172.7-.3v-61Z" fill="#b0c0f4"/>
      <path id="Path_6" data-name="Path 6" d="M155.6,264.8v61.3l172.6-.4.1-60.9Z" fill="#b0c0f4"/>
      <path id="Path_7" data-name="Path 7" d="M156.5,338.1v61.3l172.7-.3v-61Z" fill="#b0c0f4"/>
      <path id="Path_8" data-name="Path 8" d="M215.2,299.6l8.1-10.6,30.1,26.8-7.6,10.9Z" fill="#fff"/>
      <path id="Path_9" data-name="Path 9" d="M155.5,276.7l19.5.1.1,49.4-19.5-.2Z" fill="#fff"/>
      <path id="Path_10" data-name="Path 10" d="M198.1,285.1l8-4.5,20.3,40.6-7.9,5.4Z" fill="#f5f5fc"/>
      <path id="Path_11" data-name="Path 11" d="M188.7,271.3h9.5l.2,55.1-9.7-.3Z" fill="#fff"/>
      <path id="Path_12" data-name="Path 12" d="M175.1,288.1l13.8.3-.2,37.9-13.8-.3Z" fill="#f5f5fc"/>
      <path id="Path_13" data-name="Path 13" d="M250.7,276.6l19.4.1.2,49.4-19.6-.3Z" fill="#fff"/>
      <path id="Path_14" data-name="Path 14" d="M283.9,271.2h9.4l.3,55-9.8-.2Z" fill="#fff"/>
      <path id="Path_15" data-name="Path 15" d="M270.3,288l13.8.2-.3,37.9-13.8-.2Z" fill="#f5f5fc"/>
      <path id="Path_16" data-name="Path 16" d="M156.5,343.2l14.9.1.1,56.6-14.9-.3Z" fill="#fff"/>
      <path id="Path_17" data-name="Path 17" d="M171.4,351.7l10.1-.1-.3,48.1-10-.1Z" fill="#f5f5fc"/>
      <path id="Path_18" data-name="Path 18" d="M181.5,361.6l13.7.2-.3,37.9-13.8-.2Z" fill="#fff"/>
      <path id="Path_19" data-name="Path 19" d="M265.5,174.1v7.1l55.2.4v-7.5Z" fill="#f5f5fc"/>
      <path id="Path_20" data-name="Path 20" d="M265.4,168.5l.2,5.7,36,.2-.3-6.1Z" fill="#fff"/>
      <path id="Path_21" data-name="Path 21" d="M155.2,204.4l19.5.1.1,49.4-19.6-.3Z" fill="#fff"/>
      <path id="Path_22" data-name="Path 22" d="M306.9,212.3l-8.2-4.5-21.1,40.6,8.3,5.3Z" fill="#f5f5fc"/>
      <path id="Path_23" data-name="Path 23" d="M318.5,198.5H328l.2,55-9.7-.2Z" fill="#fff"/>
      <path id="Path_24" data-name="Path 24" d="M305.5,215.6l13.8.2-.2,37.9-13.8-.2Z" fill="#f5f5fc"/>
      <path id="Path_25" data-name="Path 25" d="M212.6,246.6v7.1l55.2.4v-7.5Z" fill="#f5f5fc"/>
      <path id="Path_26" data-name="Path 26" d="M221.2,240.8l.3,5.7,36,.2-.3-6.1Z" fill="#fff"/>
    </g>
    <g id="flower">
      <path id="Path_27" data-name="Path 27" d="M745.5,495.6s-16.6,19.6-3,20.1,41.5,16.3,46.8,2.2,16-21.2,9.5-22.8-12.4-8.2-26.1-7.1S745.5,495.6,745.5,495.6Z" fill="#f5f5fc"/>
      <path id="Path_28" data-name="Path 28" d="M741.2,400.3s-7.8.8-7.8,10.5,5,93.1,24,94.8a204.911,204.911,0,0,0,31.9.4c2.8-.3,5.5-8.7,6-12.1,2.5-16.6,5.7-57,6.4-80.5.1-4.8-3.1-11.1-4.8-12.7C787.4,392,741.2,400.3,741.2,400.3Z" fill="#e1e6fb"/>
      <path id="Path_29" data-name="Path 29" d="M833.1,238.9c-3-2.8-7.2,1-5.6,4.9,1.5,3.8,2.6,10.3-3.5,17.3-9.4,10.9-43.3,47.7-42.9,71.4s-7,30.3,0,39.3,35.2,8.7,42.6-10.5,26.1-26.9,25.7-54.3-3.6-39.4-7-48.8C840.4,252.3,837,242.6,833.1,238.9Z" fill="#e9edfb"/>
      <path id="Path_30" data-name="Path 30" d="M781.8,396.8s3-42.9,36.5-61.6c21-11.7,22.4-52.3,17.4-61.5" fill="none" stroke="#fff" stroke-linecap="round" stroke-linejoin="round" stroke-width="3"/>
      <path id="Path_31" data-name="Path 31" d="M786.1,414.8s10.6,42.2-.9,75.7" fill="#bac5f4"/>
      <path id="Path_32" data-name="Path 32" d="M810.2,229.6c-3.2-2.7-7.7.9-6,4.7,1.6,3.6,2.7,9.9-3.7,16.6-10.1,10.4-46.3,45.6-46,68.3s0,35.9,7.5,44.5,25,1.7,32.9-16.6,33.2-26.1,32.8-52.4c-.4-26.2-3.9-37.7-7.5-46.7C818,242.3,814.4,233.1,810.2,229.6Z" fill="#bac5f4"/>
      <path id="Path_33" data-name="Path 33" d="M767.8,397.7s-11.8-58.3,16.9-93.4c11.5-14,28.5-42.1,28.4-55.7" fill="none" stroke="#fff" stroke-linecap="round" stroke-linejoin="round" stroke-width="3"/>
      <path id="Path_34" data-name="Path 34" d="M720.7,238.9c2.9-2.8,7.1,1,5.6,4.9-1.5,3.8-2.5,10.3,3.5,17.3,9.3,10.9,42.9,47.7,42.6,71.4s0,37.5-7,46.6-23.1,1.8-30.4-17.4-30.7-27.3-30.4-54.7,3.6-39.4,6.9-48.8C713.5,252.3,716.8,242.6,720.7,238.9Z" fill="#e9edfb"/>
      <path id="Path_35" data-name="Path 35" d="M758.4,398.7s13.5-53-13.1-88c-10.6-14-27.7-34.8-27.5-48.3" fill="none" stroke="#fff" stroke-linecap="round" stroke-linejoin="round" stroke-width="3"/>
      <path id="Path_36" data-name="Path 36" d="M699.1,331.3s-27.8.6-42.8-33.1,18.8-40.6,43.6-22.5,14.7,25.6,44.3,42.3,23.2,49.8,14,58.6-26.6,22.5-38.2-13.3S699.1,331.3,699.1,331.3Z" fill="#b0c0f4"/>
      <path id="Path_37" data-name="Path 37" d="M753.1,399.1s2-84.4-81.7-107.6" fill="none" stroke="#fff" stroke-linecap="round" stroke-linejoin="round" stroke-width="3"/>
      <path id="Path_38" data-name="Path 38" d="M741.2,400.3s34.1-5.5,47.4-2.6-23.5,6.3-23.5,6.3S747.5,404.8,741.2,400.3Z" fill="#bac5f4"/>
    </g>
    <path id="Path_44" data-name="Path 44" d="M487.4,0l1.3,67.7,1.6-.3L491.7,0Z" fill="#bac5f4"/>
    <path id="Path_45" data-name="Path 45" d="M453.1,123.2s-12.6-56.5,37.3-57.1c47.2-.5,35.1,60,35.1,60Z" fill="#bac5f4"/>
    <path id="Path_46" data-name="Path 46" d="M452.6,123.2s40.1-17.4,72.9,2.7C525.5,125.9,491,144.2,452.6,123.2Z" fill="#fff"/>
    <path id="Path_47" data-name="Path 47" d="M472,76.2s-17.5,6.5-13.9,36.2" fill="#fff"/>
  </g>
</svg>
