<svg xmlns="http://www.w3.org/2000/svg" width="38.078" height="65.945" viewBox="0 0 38.078 65.945">
  <defs>
    <style>
      .cls-1 {
        fill: #f77c55;
      }

      .cls-2 {
        fill: #f8c547;
      }

      .cls-3 {
        fill: #f71d69;
      }
    </style>
  </defs>
  <g id="Cup" transform="translate(-0.002)">
    <path id="Path_64" data-name="Path 64" class="cls-1" d="M1034.1,519.23a22.485,22.485,0,0,0-2.42-.51,5.2,5.2,0,0,0-4.83,1.4,6.879,6.879,0,0,0-1.53,3.42,11.17,11.17,0,0,0,3.43,10.51,38.316,38.316,0,0,0,6.73,5.32,2.51,2.51,0,0,1,1.27,1.9,60.931,60.931,0,0,0,2.79,8.11.9.9,0,0,0,.64.5,28.659,28.659,0,0,0,15,.13c1.14-.38,1.14-.38,1.66-1.52a81.278,81.278,0,0,0,4.2-16.34,87.606,87.606,0,0,0,1-15.33c0-.88,0-1-1-1.26a18.75,18.75,0,0,0-4.71-.76,103.569,103.569,0,0,0-12.46-.26,42.3,42.3,0,0,0-7.88.89c-.64.13-1.14.38-1.66.51-.25.12-.38.25-.38.5A19.135,19.135,0,0,1,1034.1,519.23Zm1.65,17.72h-.12c-4.23-2.22-7.07-5.48-7.39-10.54a8.638,8.638,0,0,1,.34-3.16,2.7,2.7,0,0,1,1.89-1.81,3.26,3.26,0,0,1,3.46,1.85v1.4a74.066,74.066,0,0,0,1.12,9.23c.12.89.39,1.89.65,3Z" transform="translate(-1025.09 -485)"/>
    <path id="Path_65" data-name="Path 65" class="cls-2" d="M1034.33,515.94s13.46-4.11,27.72,0C1062.05,515.91,1050.19,520.69,1034.33,515.94Z" transform="translate(-1025.09 -485)"/>
    <path id="Path_66" data-name="Path 66" class="cls-3" d="M1056.89,485a16.6,16.6,0,0,1-3.79,13.95c-1.35,1.77-2.71,3.32-4.06,5.09a20.888,20.888,0,0,0-4.06,9.3c0,.44-.27,1.11-.27,1.55h0c0-.89-.27-1.55-.27-2.44a16.94,16.94,0,0,1,3.79-11.07,48.277,48.277,0,0,1,3.52-4.21,24.418,24.418,0,0,0,5.15-10.85" transform="translate(-1025.09 -485)"/>
    <path id="Path_67" data-name="Path 67" class="cls-3" d="M1039.28,509.58a6,6,0,0,0-.27-1.33,12.76,12.76,0,0,1,3.25-9.08,28.847,28.847,0,0,0,3.25-4.43,17.823,17.823,0,0,0,2.44-6.2c.05-.26.22-1.45.22-.69l.05.25a11.2,11.2,0,0,1,.27,1.77,13,13,0,0,1-3,8.19l-3.25,4a16.331,16.331,0,0,0-2.5,5.37,3.375,3.375,0,0,0-.08.73,2.861,2.861,0,0,1-.39,1.43Z" transform="translate(-1025.09 -485)"/>
    <path id="Path_68" data-name="Path 68" class="cls-3" d="M1054,511.56c0-.1-.22-.95-.29-1.7a12.761,12.761,0,0,1,3.25-9.08,28.832,28.832,0,0,0,3.25-4.43,17.819,17.819,0,0,0,2.44-6.2c.06-.23.34-1.38.25-.57v.22a13.977,13.977,0,0,1,.27,1.68,13,13,0,0,1-3,8.19l-3.25,4a16.334,16.334,0,0,0-2.5,5.37,3.375,3.375,0,0,0-.08.73,5.35,5.35,0,0,1-.27,1.5Z" transform="translate(-1025.09 -485)"/>
  </g>
</svg>
