<svg xmlns="http://www.w3.org/2000/svg" width="430.199" height="236.496" viewBox="0 0 430.199 236.496">
  <g id="Group_1" data-name="Group 1" transform="translate(-281.301 -263.504)">
    <path id="Path_39" data-name="Path 39" d="M327.8,409.2s-38.4-30.3-44.9-60,7.6-50.3,28.1-53.5,33-13,104.9,11.4,154.7-18.9,154.7-18.9,67.6-31.1,101-23.5c38,8.6,46.1,31.6,35.8,72.7s-45.3,72.2-45.3,72.2Z" fill="#bac5f4"/>
    <path id="Path_40" data-name="Path 40" d="M310.4,406s-6,0-7,6,1,25,4,31,17.1,5.7,17.1,5.7l342.9-.7s11.4.1,14-9c2.1-7.3,5.1-14.6,5.4-19.7a11.487,11.487,0,0,0-9.9-12,84.211,84.211,0,0,0-11.2-.7C639.6,406.6,310.4,406,310.4,406Z" fill="#bac5f4"/>
    <path id="Path_41" data-name="Path 41" d="M294.4,499l23-50h18l-24,50Z" fill="#fff"/>
    <path id="Path_42" data-name="Path 42" d="M648.4,449l21,51,15-1-20-50Z" fill="#fff"/>
    <path id="Path_43" data-name="Path 43" d="M333.7,406.6s-31.6-24.4-33.1-34.5c-1.9-13.2,10-32.8,56.2-24.1s127.7,32.2,171.9,20.2,99.8-62.4,103.8-65.1,51.3-25.9,62,9.5S662,406.2,662,406.2Z" fill="#b0c0f4"/>
  </g>
</svg>
