<svg xmlns="http://www.w3.org/2000/svg" xmlns:xlink="http://www.w3.org/1999/xlink" width="430.199" height="281.439" viewBox="0 0 430.199 281.439">
  <defs>
    <linearGradient id="linear-gradient" x1="5.641" y1="-26.206" x2="4.64" y2="-26.206" gradientUnits="objectBoundingBox">
      <stop offset="0" stop-color="#4b45bd"/>
      <stop offset="1" stop-color="#58caea"/>
    </linearGradient>
    <linearGradient id="linear-gradient-2" y1="1.407" x2="0.999" y2="1.407" gradientUnits="objectBoundingBox">
      <stop offset="0" stop-color="#f87b58"/>
      <stop offset="0.5" stop-color="#f8c548"/>
      <stop offset="1" stop-color="#f89c51"/>
    </linearGradient>
    <linearGradient id="linear-gradient-3" y1="-3.309" x2="0.999" y2="-3.309" gradientUnits="objectBoundingBox">
      <stop offset="0" stop-color="#e5a4ed"/>
      <stop offset="1" stop-color="#7a5bf5"/>
    </linearGradient>
    <linearGradient id="linear-gradient-4" x1="0.002" y1="-1.766" x2="0.999" y2="-1.766" xlink:href="#linear-gradient"/>
  </defs>
  <g id="example-9" transform="translate(-281.301 -218.561)">
    <g id="Group_1" data-name="Group 1">
      <path id="Path_39" data-name="Path 39" d="M327.8,409.2s-38.4-30.3-44.9-60,7.6-50.3,28.1-53.5,33-13,104.9,11.4,154.7-18.9,154.7-18.9,67.6-31.1,101-23.5c38,8.6,46.1,31.6,35.8,72.7s-45.3,72.2-45.3,72.2Z" fill="#bac5f4"/>
      <path id="Path_40" data-name="Path 40" d="M310.4,406s-6,0-7,6,1,25,4,31,17.1,5.7,17.1,5.7l342.9-.7s11.4.1,14-9c2.1-7.3,5.1-14.6,5.4-19.7a11.487,11.487,0,0,0-9.9-12,84.211,84.211,0,0,0-11.2-.7C639.6,406.6,310.4,406,310.4,406Z" fill="#bac5f4"/>
      <path id="Path_41" data-name="Path 41" d="M294.4,499l23-50h18l-24,50Z" fill="#fff"/>
      <path id="Path_42" data-name="Path 42" d="M648.4,449l21,51,15-1-20-50Z" fill="#fff"/>
      <path id="Path_43" data-name="Path 43" d="M333.7,406.6s-31.6-24.4-33.1-34.5c-1.9-13.2,10-32.8,56.2-24.1s127.7,32.2,171.9,20.2,99.8-62.4,103.8-65.1,51.3-25.9,62,9.5S662,406.2,662,406.2Z" fill="#b0c0f4"/>
    </g>
    <g id="Group_3" data-name="Group 3">
      <g id="woman">
        <g id="Group_2" data-name="Group 2">
          <path id="Path_54" data-name="Path 54" d="M527.2,416.4c-2.9-4.8-5.2-6-12.3-6.2s-16.5-.1-16.5-.1l-.1,10.1s7.8,4.5,12,6.8c.2.1.9.5,1.4.8a15.546,15.546,0,0,0,2.3.8c4.1.9,7.9.4,10.6-2.2C527.5,423.4,530.1,421.2,527.2,416.4Z" fill="#4b44be"/>
          <path id="Path_55" data-name="Path 55" d="M473.7,407.5c-.2.2-.9.7-1.3,1a13.722,13.722,0,0,0-1.6,1.8c-2.3,3.5-3.4,7.1-1.8,10.6,1.7,3.8,2.8,7.1,8.2,6.1,5.4-.9,7.5-2.6,10.4-9s6.3-15.3,6.2-15.3l-9.3-3.8C484.4,398.9,477.3,404.5,473.7,407.5Z" fill="#4b44be"/>
        </g>
        <path id="Path_56" data-name="Path 56" d="M499.1,410.5s.1,10.2-1.5,10.4c-1.7.2-24.5-3.1-33.6-3.5-9.1-.5-29.7-6.4-39.8-17.8-8.8-9.9-7.4-20.8-.9-20.8s12.4-5.5,28.8,2.3a92.239,92.239,0,0,0,43.6,8.4c9.8-.8,37.2-5.8,39.3-7.4s12.4-6,26.7-4.5,7.5,12.9,4.5,17.3c-4.2,6.1-14.2,12.6-22.6,12.9S499.1,410.5,499.1,410.5Z" fill="url(#linear-gradient)"/>
        <path id="Path_57" data-name="Path 57" d="M482.1,232.8c-4.8,1.8-10.9,25.6-10.9,25.6l-.1-.1-.7,3.3-.8,4.3,1.6,25.9,15.6,7.8,35.7,9.6,9.9,14.1s22.1,22.5,22.3,24.1c.1,1.6-23.8,9.5-26.1,9.8-5.5.8,35.2-9.1,22.1-24.9-5.5-6.8-13.7-27.1-29.8-40.6-9.3-7.8-6.7-29.9-10-43.9-4.1-17.5-6.7-22.8-10.8-22.8-3.7,0-8.9,4.4-18,7.8" fill="url(#linear-gradient-2)"/>
        <path id="Path_58" data-name="Path 58" d="M532.7,289.4c-7.5-6.9-10-8.5-16.6-6.2s-9.8,4.5-18.7,5.9a28.48,28.48,0,0,1-16.3-2l-18.4,1.8c-2.3-.3-28.5,48.9-29.2,59.1-.4,6.3,13.9,16,17.8,16.9,1.6.4,4.5-15.1,5.4-16.5l-6-1.8a95.078,95.078,0,0,1,7.1-12.8c.7-1.1,6.4-10.5,7.2-14.1.1.3,1,7.1,1.8,9.3,1.5,4,3.5,6.3,3.5,9.5s-.4,16-2.7,21.7-5.7,19-5.7,19l58.9-.3s-2.1-25.3-1.3-34a16.511,16.511,0,0,1,.8-8.6c2.9-8.4,3.7-20.8,3.2-22.8-.7-3.1,17.3,22.9,21.3,29.4,1.7,2.7-20.8,7.5-22.6,9.6-1.9,2.2,1.9,8.1,1.9,8.1s39.1-4.8,38.9-10.7S541.4,297.3,532.7,289.4Z" fill="url(#linear-gradient-3)"/>
        <path id="Path_59" data-name="Path 59" d="M486.8,218.8a15.861,15.861,0,0,0-14.1,11.9c-3.2,11.5-3.6,27.5-3.7,30-.1,2.6,1.1,18-4.8,24.4-5.1,5.5-3,10.9-4.3,15.3l-.6,7.3a2.247,2.247,0,0,0,1.6,1.9c.8.2,3.5-1,4-1.2,6.8-2.7,6.8-4.9,9.4-7.1,2.1-1.8,8-6,9.8-7.6,1.8-1.7,3-3.1,3.1-5.2.3-10.6-1.5-20.5-3.8-25.7s-6.8-14-3.1-19.8,10.5-11.7,10.9-13.1.6,5.6,4.7,8.1,7.6,5.9,8.9,9.3c1.1,2.8,2.5,7.6-1.4,16-3.9,8.3-7.1,19-1.6,26.9s17.1,16.5,19,20.5c2.1,4.4.1,14.8-.3,21.1s12.3-10.9,11.9-19.1,1-11.7-6.9-24.2-12.9-34-13.1-39.2-2.5-19.6-7.2-23.8c-4.1-3.5-5-6.9-13.3-6.9a28.654,28.654,0,0,0-5.1.2" fill="url(#linear-gradient-4)"/>
        <path id="Path_60" data-name="Path 60" d="M461.9,392.7l55.2.3s-6.5,5.1-9.6,5.6-16.4,7.2-21.4,4.7C482.7,401.4,461.9,392.7,461.9,392.7Z" opacity="0.07"/>
        <path id="Path_61" data-name="Path 61" d="M492.7,268.6s5.2,1.3,7.3-1.7c4.8-6.8.4,3.5.4,3.5s-1.4,4-1.3,6-5.5-7.5-6.4-7.8" opacity="0.07"/>
        <path id="Path_62" data-name="Path 62" d="M472.1,303.6c-.6.8-1.6,1.4-2,3.4-.8,3.2-1.7,6.8-3.9,10.1-1.3,1.9-.6,9.5,1.6,14.2.6,1.4,2.6,4.9,2.5,5.7l-.1,6.9h5.9s5.1.5,4-3.6c-.9-3.7-5.7-17.5-2.5-20.5,6.1-5.6-1.6-16.8,1.3-20.4,2.5-3.1,6-5.3,6-6.4,0-.4-.9.9-1.6,1.3a24.7,24.7,0,0,1-2.9,2.2,47.311,47.311,0,0,0-3.9,2.8A35.974,35.974,0,0,0,472.1,303.6Z" opacity="0.07"/>
      </g>
      <g id="laptop">
        <path id="Path_63" data-name="Path 63" d="M449,347.9s0-3.6,3.5-3.7,78.7,0,78.7,0,3.3.4,3.4,3.1.1,42.4.1,42.4a3.182,3.182,0,0,1-3.2,3.2c-3.2.1-79.9.1-79.9.1a3.673,3.673,0,0,1-2.8-3.6C448.8,386.4,449,347.9,449,347.9Z" fill="#fff"/>
        <circle id="Ellipse_2" data-name="Ellipse 2" cx="3.3" cy="3.3" r="3.3" transform="translate(488.7 365.2)" fill="#76c6e7"/>
      </g>
    </g>
  </g>
</svg>
