<svg xmlns="http://www.w3.org/2000/svg" width="956.535" height="611.272" viewBox="0 0 956.535 611.272">
  <g id="Group_1" data-name="Group 1" transform="translate(-0.06 -6.98)">
    <path id="Path_1" data-name="Path 1" d="M57.1,393S-94.5,260.1,96.6,197.3c95.3-31.3,117.7-47.4,191.8-108,106-86.8,244.9-136.9,425.5,16.1s316.9,200.4,198,292.1c-133.7,103.1-52.3,156.1-69.1,185.2-4.5,7.7-32.7-25.3-94.9,8.7-141.7,77.5-213.8-40.4-318-11-98.3,27.8-148.8-33.6-180.8-9.6-47.7,35.8-77.6,35.3-95.5,25.9-15-7.9-23.8-24.2-23.1-41.3.8-19.4.9-55.8-6.9-82.3C111.8,433.1,82.9,412.7,57.1,393Z" fill="#f5f5fc"/>
  </g>
</svg>
