<svg xmlns="http://www.w3.org/2000/svg" xmlns:xlink="http://www.w3.org/1999/xlink" width="956.535" height="618.252" viewBox="0 0 956.535 618.252">
  <defs>
    <linearGradient id="linear-gradient" x1="0.498" y1="3.474" x2="0.5" y2="1.732" gradientUnits="objectBoundingBox">
      <stop offset="0" stop-color="#fff"/>
      <stop offset="1" stop-color="#fff" stop-opacity="0"/>
    </linearGradient>
  </defs>
  <g id="Group_1" data-name="Group 1" transform="translate(-0.06)">
    <path id="Path_1" data-name="Path 1" d="M57.1,393S-94.5,260.1,96.6,197.3c95.3-31.3,117.7-47.4,191.8-108,106-86.8,244.9-136.9,425.5,16.1s316.9,200.4,198,292.1c-133.7,103.1-52.3,156.1-69.1,185.2-4.5,7.7-32.7-25.3-94.9,8.7-141.7,77.5-213.8-40.4-318-11-98.3,27.8-148.8-33.6-180.8-9.6-47.7,35.8-77.6,35.3-95.5,25.9-15-7.9-23.8-24.2-23.1-41.3.8-19.4.9-55.8-6.9-82.3C111.8,433.1,82.9,412.7,57.1,393Z" fill="#f5f5fc"/>
    <g id="books">
      <path id="Path_3" data-name="Path 3" d="M223.3,142.3l-49.7,33.5c-.7.4-1.8-6.7-2.5-6.4l-33.8,13-.4,242.9,211.5-2.6L346.8,93.5l-64.4.5Z" fill="#e9edfb"/>
      <path id="Path_4" data-name="Path 4" d="M206.9,150.2l-51.8,25.4-.1,6.8,172.5-1-.7-62.1-74.4-1L235.8,131c-2.9,2.2-6.5,4.6-11,7.6C217.3,143.5,212.8,146.8,206.9,150.2Z" fill="#b0c0f4"/>
      <path id="Path_5" data-name="Path 5" d="M155.1,192.5v61.3l172.7-.3v-61Z" fill="#b0c0f4"/>
      <path id="Path_6" data-name="Path 6" d="M155.6,264.8v61.3l172.6-.4.1-60.9Z" fill="#b0c0f4"/>
      <path id="Path_7" data-name="Path 7" d="M156.5,338.1v61.3l172.7-.3v-61Z" fill="#b0c0f4"/>
      <path id="Path_8" data-name="Path 8" d="M215.2,299.6l8.1-10.6,30.1,26.8-7.6,10.9Z" fill="#fff"/>
      <path id="Path_9" data-name="Path 9" d="M155.5,276.7l19.5.1.1,49.4-19.5-.2Z" fill="#fff"/>
      <path id="Path_10" data-name="Path 10" d="M198.1,285.1l8-4.5,20.3,40.6-7.9,5.4Z" fill="#f5f5fc"/>
      <path id="Path_11" data-name="Path 11" d="M188.7,271.3h9.5l.2,55.1-9.7-.3Z" fill="#fff"/>
      <path id="Path_12" data-name="Path 12" d="M175.1,288.1l13.8.3-.2,37.9-13.8-.3Z" fill="#f5f5fc"/>
      <path id="Path_13" data-name="Path 13" d="M250.7,276.6l19.4.1.2,49.4-19.6-.3Z" fill="#fff"/>
      <path id="Path_14" data-name="Path 14" d="M283.9,271.2h9.4l.3,55-9.8-.2Z" fill="#fff"/>
      <path id="Path_15" data-name="Path 15" d="M270.3,288l13.8.2-.3,37.9-13.8-.2Z" fill="#f5f5fc"/>
      <path id="Path_16" data-name="Path 16" d="M156.5,343.2l14.9.1.1,56.6-14.9-.3Z" fill="#fff"/>
      <path id="Path_17" data-name="Path 17" d="M171.4,351.7l10.1-.1-.3,48.1-10-.1Z" fill="#f5f5fc"/>
      <path id="Path_18" data-name="Path 18" d="M181.5,361.6l13.7.2-.3,37.9-13.8-.2Z" fill="#fff"/>
      <path id="Path_19" data-name="Path 19" d="M265.5,174.1v7.1l55.2.4v-7.5Z" fill="#f5f5fc"/>
      <path id="Path_20" data-name="Path 20" d="M265.4,168.5l.2,5.7,36,.2-.3-6.1Z" fill="#fff"/>
      <path id="Path_21" data-name="Path 21" d="M155.2,204.4l19.5.1.1,49.4-19.6-.3Z" fill="#fff"/>
      <path id="Path_22" data-name="Path 22" d="M306.9,212.3l-8.2-4.5-21.1,40.6,8.3,5.3Z" fill="#f5f5fc"/>
      <path id="Path_23" data-name="Path 23" d="M318.5,198.5H328l.2,55-9.7-.2Z" fill="#fff"/>
      <path id="Path_24" data-name="Path 24" d="M305.5,215.6l13.8.2-.2,37.9-13.8-.2Z" fill="#f5f5fc"/>
      <path id="Path_25" data-name="Path 25" d="M212.6,246.6v7.1l55.2.4v-7.5Z" fill="#f5f5fc"/>
      <path id="Path_26" data-name="Path 26" d="M221.2,240.8l.3,5.7,36,.2-.3-6.1Z" fill="#fff"/>
    </g>
    <g id="flower">
      <path id="Path_27" data-name="Path 27" d="M745.5,495.6s-16.6,19.6-3,20.1,41.5,16.3,46.8,2.2,16-21.2,9.5-22.8-12.4-8.2-26.1-7.1S745.5,495.6,745.5,495.6Z" fill="#f5f5fc"/>
      <path id="Path_28" data-name="Path 28" d="M741.2,400.3s-7.8.8-7.8,10.5,5,93.1,24,94.8a204.909,204.909,0,0,0,31.9.4c2.8-.3,5.5-8.7,6-12.1,2.5-16.6,5.7-57,6.4-80.5.1-4.8-3.1-11.1-4.8-12.7C787.4,392,741.2,400.3,741.2,400.3Z" fill="#e1e6fb"/>
      <path id="Path_29" data-name="Path 29" d="M833.1,238.9c-3-2.8-7.2,1-5.6,4.9,1.5,3.8,2.6,10.3-3.5,17.3-9.4,10.9-43.3,47.7-42.9,71.4s-7,30.3,0,39.3,35.2,8.7,42.6-10.5,26.1-26.9,25.7-54.3-3.6-39.4-7-48.8C840.4,252.3,837,242.6,833.1,238.9Z" fill="#e9edfb"/>
      <path id="Path_30" data-name="Path 30" d="M781.8,396.8s3-42.9,36.5-61.6c21-11.7,22.4-52.3,17.4-61.5" fill="none" stroke="#fff" stroke-linecap="round" stroke-linejoin="round" stroke-width="3"/>
      <path id="Path_31" data-name="Path 31" d="M786.1,414.8s10.6,42.2-.9,75.7" fill="#bac5f4"/>
      <path id="Path_32" data-name="Path 32" d="M810.2,229.6c-3.2-2.7-7.7.9-6,4.7,1.6,3.6,2.7,9.9-3.7,16.6-10.1,10.4-46.3,45.6-46,68.3s0,35.9,7.5,44.5,25,1.7,32.9-16.6,33.2-26.1,32.8-52.4c-.4-26.2-3.9-37.7-7.5-46.7C818,242.3,814.4,233.1,810.2,229.6Z" fill="#bac5f4"/>
      <path id="Path_33" data-name="Path 33" d="M767.8,397.7s-11.8-58.3,16.9-93.4c11.5-14,28.5-42.1,28.4-55.7" fill="none" stroke="#fff" stroke-linecap="round" stroke-linejoin="round" stroke-width="3"/>
      <path id="Path_34" data-name="Path 34" d="M720.7,238.9c2.9-2.8,7.1,1,5.6,4.9-1.5,3.8-2.5,10.3,3.5,17.3,9.3,10.9,42.9,47.7,42.6,71.4s0,37.5-7,46.6-23.1,1.8-30.4-17.4-30.7-27.3-30.4-54.7,3.6-39.4,6.9-48.8C713.5,252.3,716.8,242.6,720.7,238.9Z" fill="#e9edfb"/>
      <path id="Path_35" data-name="Path 35" d="M758.4,398.7s13.5-53-13.1-88c-10.6-14-27.7-34.8-27.5-48.3" fill="none" stroke="#fff" stroke-linecap="round" stroke-linejoin="round" stroke-width="3"/>
      <path id="Path_36" data-name="Path 36" d="M699.1,331.3s-27.8.6-42.8-33.1,18.8-40.6,43.6-22.5,14.7,25.6,44.3,42.3,23.2,49.8,14,58.6-26.6,22.5-38.2-13.3S699.1,331.3,699.1,331.3Z" fill="#b0c0f4"/>
      <path id="Path_37" data-name="Path 37" d="M753.1,399.1s2-84.4-81.7-107.6" fill="none" stroke="#fff" stroke-linecap="round" stroke-linejoin="round" stroke-width="3"/>
      <path id="Path_38" data-name="Path 38" d="M741.2,400.3s34.1-5.5,47.4-2.6-23.5,6.3-23.5,6.3S747.5,404.8,741.2,400.3Z" fill="#bac5f4"/>
    </g>
    <path id="Path_44" data-name="Path 44" d="M487.4,0l1.3,67.7,1.6-.3L491.7,0Z" fill="#bac5f4"/>
    <path id="Path_45" data-name="Path 45" d="M453.1,123.2s-12.6-56.5,37.3-57.1c47.2-.5,35.1,60,35.1,60Z" fill="#bac5f4"/>
    <path id="Path_46" data-name="Path 46" d="M452.6,123.2s40.1-17.4,72.9,2.7C525.5,125.9,491,144.2,452.6,123.2Z" fill="#fff"/>
    <path id="Path_47" data-name="Path 47" d="M472,76.2s-17.5,6.5-13.9,36.2" fill="#fff"/>
    <path id="Path_48" data-name="Path 48" d="M452.6,123.2,417.2,250.5,562,249.1,525.5,125.9Z" fill="url(#linear-gradient)"/>
  </g>
</svg>
