<svg xmlns="http://www.w3.org/2000/svg" width="87.444" height="85.236" viewBox="0 0 87.444 85.236">
  <g id="bag" transform="translate(-689.703 -438.564)">
    <path id="Path_49" data-name="Path 49" d="M699.2,461.4s-11.1,40.3-9.3,44.8,10.8,5.4,14.8,6.3,40.3,10.4,44,10.6,3.4.7,5,.7,21.8-6.8,22.5-9.2,1.3-4,.7-7-9.8-41.4-12.3-42.2S699.2,461.4,699.2,461.4Z" fill="#e5a4ed"/>
    <path id="Path_50" data-name="Path 50" d="M697.3,468.6s.8-6.3,1.9-7.2,4.2-5,7.2-5.2,51.3,5.9,53.1,6.3,4.2,1.3,5,2.8-7,3.3-8.5,8.1-29.1,14.9-35.9,15.6S697.3,468.6,697.3,468.6Z" fill="#e5a4ed"/>
    <path id="Path_51" data-name="Path 51" d="M713.1,457.8s5.2-11.3,7.7-13.4c2.2-1.9,10.1-6,14.9.1,5.4,6.9,4.9,14.9,4.9,15.9s-5.3.1-5.3.1,1.7-8.2.2-11c-1.4-2.6-2.2-5.7-7.2-5.4s-6.8,3.1-8.3,5.7a56.839,56.839,0,0,0-3.2,8.1C716.6,458.2,713.1,457.8,713.1,457.8Z" fill="#7a5bf5"/>
    <path id="Path_52" data-name="Path 52" d="M721.4,458.5s5.2-13.8,7.7-16.4c2.2-2.3,10.6-6.9,15.4.5,5.4,8.4,4.3,17.8,4.3,18.9s-5.3.2-5.3.2,1.6-10,.1-13.5c-1.4-3.2-2.2-7-7.1-6.6s-6.8,3.7-8.3,7a81.7,81.7,0,0,0-3.2,9.9C725,459,721.4,458.5,721.4,458.5Z" fill="#7a5bf5"/>
    <path id="Path_53" data-name="Path 53" d="M753.9,476.2s-4.6,38.7-4,41.3,2.1,6.3,3.2,6.3,2.9-.2,2.2-1.1a15.755,15.755,0,0,1-2.7-11.3c.7-6.3,3.4-38,3.4-38Z" fill="#7a5bf5"/>
    <circle id="Ellipse_1" data-name="Ellipse 1" cx="2.8" cy="2.8" r="2.8" transform="translate(716.1 486.2)" fill="#fff"/>
  </g>
</svg>
