<?xml version="1.0" encoding="UTF-8" standalone="no"?>
<svg
   xmlns:dc="http://purl.org/dc/elements/1.1/"
   xmlns:cc="http://creativecommons.org/ns#"
   xmlns:rdf="http://www.w3.org/1999/02/22-rdf-syntax-ns#"
   xmlns:svg="http://www.w3.org/2000/svg"
   xmlns="http://www.w3.org/2000/svg"
   xmlns:xlink="http://www.w3.org/1999/xlink"
   id="svg8"
   version="1.1"
   viewBox="0 0 256.24078 163.57928"
   height="163.57928mm"
   width="256.24078mm">
  <defs
     id="defs2">
    <linearGradient
       gradientTransform="scale(1.0665226,0.9376266)"
       id="linear-gradient"
       x1="458.79045"
       y1="603.05477"
       x2="459.06198"
       y2="366.54634"
       gradientUnits="userSpaceOnUse">
      <stop
         offset="0"
         stop-color="#fff"
         id="stop10" />
      <stop
         offset="1"
         stop-color="#fff"
         stop-opacity="0"
         id="stop12" />
    </linearGradient>
    <linearGradient
       id="linear-gradient-2"
       x1="17.108"
       y1="-29.948999"
       x2="18.080999"
       y2="-30.580999"
       gradientUnits="objectBoundingBox">
      <stop
         offset="0"
         stop-color="#e5a4ed"
         id="stop15" />
      <stop
         offset="1"
         stop-color="#7a5bf5"
         id="stop17" />
    </linearGradient>
    <linearGradient
       gradientUnits="userSpaceOnUse"
       gradientTransform="scale(1.4314907,0.69857245)"
       id="linear-gradient-3"
       x1="1536.0363"
       y1="-1999.7343"
       x2="1575.55"
       y2="-2037.2746"
       xlink:href="#linear-gradient-2" />
    <linearGradient
       gradientTransform="scale(1.8615932,0.53717429)"
       id="linear-gradient-4"
       x1="686.51191"
       y1="-1444.4624"
       x2="604.53547"
       y2="-1444.4624"
       gradientUnits="userSpaceOnUse">
      <stop
         offset="0"
         stop-color="#4b45bd"
         id="stop21" />
      <stop
         offset="1"
         stop-color="#fff"
         stop-opacity="0.212"
         id="stop23" />
    </linearGradient>
    <linearGradient
       x1="585.39947"
       gradientTransform="scale(0.80218726,1.2465917)"
       id="linear-gradient-5"
       y1="329.75421"
       x2="691.37873"
       y2="329.75421"
       gradientUnits="userSpaceOnUse">
      <stop
         offset="0"
         stop-color="#f87b58"
         id="stop26" />
      <stop
         offset="0.5"
         stop-color="#f8c548"
         id="stop28" />
      <stop
         offset="1"
         stop-color="#f89c51"
         id="stop30" />
    </linearGradient>
    <linearGradient
       gradientUnits="userSpaceOnUse"
       gradientTransform="scale(1.1555798,0.86536648)"
       id="linear-gradient-6"
       x1="375.12925"
       y1="-44.725596"
       x2="487.08992"
       y2="-44.725596"
       xlink:href="#linear-gradient-2" />
    <linearGradient
       gradientTransform="scale(0.79873871,1.2519739)"
       id="linear-gradient-7"
       x1="575.21466"
       y1="12.932142"
       x2="666.47095"
       y2="12.932142"
       gradientUnits="userSpaceOnUse">
      <stop
         offset="0"
         stop-color="#fff"
         id="stop34" />
      <stop
         offset="1"
         stop-color="#d2f1f9"
         stop-opacity="0"
         id="stop36" />
      <stop
         offset="1"
         stop-color="#58caea"
         id="stop38" />
    </linearGradient>
    <linearGradient
       gradientTransform="scale(1.1837814,0.84475056)"
       y2="-1712.7593"
       x2="1918.2332"
       y1="-1666.0747"
       x1="1846.3597"
       gradientUnits="userSpaceOnUse"
       id="linearGradient216"
       xlink:href="#linear-gradient-2" />
  </defs>
  <metadata
     id="metadata5">
    <rdf:RDF>
      <cc:Work
         rdf:about="">
        <dc:format>image/svg+xml</dc:format>
        <dc:type
           rdf:resource="http://purl.org/dc/dcmitype/StillImage" />
        <dc:title></dc:title>
      </cc:Work>
    </rdf:RDF>
  </metadata>
  <g
     transform="translate(39.673961,-256.87703)"
     id="layer1">
    <g
       id="example-full"
       transform="matrix(0.26458333,0,0,0.26458333,-39.66772,256.87703)">
      <g
         id="g159"
         transform="translate(-0.084)">
        <path
           id="path56"
           d="m 57.1,393 c 0,0 -151.6,-132.9 39.5,-195.7 95.3,-31.3 117.7,-47.4 191.8,-108 106,-86.8 244.9,-136.9 425.5,16.1 180.6,153 316.9,200.4 198,292.1 -133.7,103.1 -52.3,156.1 -69.1,185.2 -4.5,7.7 -32.7,-25.3 -94.9,8.7 -141.7,77.5 -213.8,-40.4 -318,-11 -98.3,27.8 -148.8,-33.6 -180.8,-9.6 -47.7,35.8 -77.6,35.3 -95.5,25.9 -15,-7.9 -23.8,-24.2 -23.1,-41.3 0.8,-19.4 0.9,-55.8 -6.9,-82.3 -11.8,-40 -40.7,-60.4 -66.5,-80.1 z"
           fill="#f5f5fc" />
        <path
           id="path58"
           d="m 58.8,394.6 c 0,0 -153.1,-135.7 39.9,-199.9 96.2,-32 118.8,-48.4 193.6,-110.4 107,-88.6 247.2,-139.9 429.4,16.4 182.2,156.3 324.3,211 199.8,298.5 -86.2,60.6 -57,31 -83.8,51.8 -57,44 -186.6,-38.7 -291.8,-8.6 -99.2,28.3 -195.7,-14 -238.8,-16.9 -17.1,-1.1 -86,-1.4 -120.7,-3.2 -19.4,-1 -40.8,7.5 -67.8,1.1 C 78,413.7 84.9,414.7 58.8,394.6 Z"
           fill="#f8f8ff" />
        <g
           id="books">
          <path
             id="path60"
             d="m 223.3,142.3 -49.7,33.5 c -0.7,0.4 -1.8,-6.7 -2.5,-6.4 l -33.8,13 -0.4,242.9 211.5,-2.6 -1.6,-329.2 -64.4,0.5 z"
             fill="#e9edfb" />
          <path
             id="path62"
             d="m 206.9,150.2 -51.8,25.4 -0.1,6.8 172.5,-1 -0.7,-62.1 -74.4,-1 -16.6,12.7 c -2.9,2.2 -6.5,4.6 -11,7.6 -7.5,4.9 -12,8.2 -17.9,11.6 z"
             fill="#b0c0f4" />
          <path
             id="polygon64"
             d="m 155.1,192.5 v 61.3 l 172.7,-0.3 v -61 z"
             fill="#b0c0f4" />
          <path
             id="polygon66"
             d="m 155.6,264.8 v 61.3 l 172.6,-0.4 0.1,-60.9 z"
             fill="#b0c0f4" />
          <path
             id="polygon68"
             d="m 156.5,338.1 v 61.3 l 172.7,-0.3 v -61 z"
             fill="#b0c0f4" />
          <path
             id="polygon70"
             d="m 215.2,299.6 8.1,-10.6 30.1,26.8 -7.6,10.9 z"
             fill="#ffffff" />
          <path
             id="polygon72"
             d="m 155.5,276.7 19.5,0.1 0.1,49.4 -19.5,-0.2 z"
             fill="#ffffff" />
          <path
             id="polygon74"
             d="m 198.1,285.1 8,-4.5 20.3,40.6 -7.9,5.4 z"
             fill="#f5f5fc" />
          <path
             id="polygon76"
             d="m 188.7,271.3 h 9.5 l 0.2,55.1 -9.7,-0.3 z"
             fill="#ffffff" />
          <path
             id="polygon78"
             d="m 175.1,288.1 13.8,0.3 -0.2,37.9 -13.8,-0.3 z"
             fill="#f5f5fc" />
          <path
             id="polygon80"
             d="m 250.7,276.6 19.4,0.1 0.2,49.4 -19.6,-0.3 z"
             fill="#ffffff" />
          <path
             id="polygon82"
             d="m 283.9,271.2 h 9.4 l 0.3,55 -9.8,-0.2 z"
             fill="#ffffff" />
          <path
             id="polygon84"
             d="m 270.3,288 13.8,0.2 -0.3,37.9 -13.8,-0.2 z"
             fill="#f5f5fc" />
          <path
             id="polygon86"
             d="m 156.5,343.2 14.9,0.1 0.1,56.6 -14.9,-0.3 z"
             fill="#ffffff" />
          <path
             id="polygon88"
             d="m 171.4,351.7 10.1,-0.1 -0.3,48.1 -10,-0.1 z"
             fill="#f5f5fc" />
          <path
             id="polygon90"
             d="m 181.5,361.6 13.7,0.2 -0.3,37.9 -13.8,-0.2 z"
             fill="#ffffff" />
          <path
             id="polygon92"
             d="m 265.5,174.1 v 7.1 l 55.2,0.4 v -7.5 z"
             fill="#f5f5fc" />
          <path
             id="polygon94"
             d="m 265.4,168.5 0.2,5.7 36,0.2 -0.3,-6.1 z"
             fill="#ffffff" />
          <path
             id="polygon96"
             d="m 155.2,204.4 19.5,0.1 0.1,49.4 -19.6,-0.3 z"
             fill="#ffffff" />
          <path
             id="polygon98"
             d="m 306.9,212.3 -8.2,-4.5 -21.1,40.6 8.3,5.3 z"
             fill="#f5f5fc" />
          <path
             id="polygon100"
             d="m 318.5,198.5 h 9.5 l 0.2,55 -9.7,-0.2 z"
             fill="#ffffff" />
          <path
             id="polygon102"
             d="m 305.5,215.6 13.8,0.2 -0.2,37.9 -13.8,-0.2 z"
             fill="#f5f5fc" />
          <path
             id="polygon104"
             d="m 212.6,246.6 v 7.1 l 55.2,0.4 v -7.5 z"
             fill="#f5f5fc" />
          <path
             id="polygon106"
             d="m 221.2,240.8 0.3,5.7 36,0.2 -0.3,-6.1 z"
             fill="#ffffff" />
        </g>
        <g
           id="flower">
          <path
             id="path109"
             d="m 745.5,495.6 c 0,0 -16.6,19.6 -3,20.1 13.6,0.5 41.5,16.3 46.8,2.2 5.3,-14.1 16,-21.2 9.5,-22.8 -6.5,-1.6 -12.4,-8.2 -26.1,-7.1 -13.7,1.1 -27.2,7.6 -27.2,7.6 z"
             fill="#f5f5fc" />
          <path
             id="path111"
             d="m 741.2,400.3 c 0,0 -7.8,0.8 -7.8,10.5 0,9.7 5,93.1 24,94.8 a 204.909,204.909 0 0 0 31.9,0.4 c 2.8,-0.3 5.5,-8.7 6,-12.1 2.5,-16.6 5.7,-57 6.4,-80.5 0.1,-4.8 -3.1,-11.1 -4.8,-12.7 -9.5,-8.7 -55.7,-0.4 -55.7,-0.4 z"
             fill="#e1e6fb" />
          <path
             id="path113"
             d="m 833.1,238.9 c -3,-2.8 -7.2,1 -5.6,4.9 1.5,3.8 2.6,10.3 -3.5,17.3 -9.4,10.9 -43.3,47.7 -42.9,71.4 0.4,23.7 -7,30.3 0,39.3 7,9 35.2,8.7 42.6,-10.5 7.4,-19.2 26.1,-26.9 25.7,-54.3 -0.4,-27.4 -3.6,-39.4 -7,-48.8 -2,-5.9 -5.4,-15.6 -9.3,-19.3 z"
             fill="#e9edfb" />
          <path
             id="path115"
             d="m 781.8,396.8 c 0,0 3,-42.9 36.5,-61.6 21,-11.7 22.4,-52.3 17.4,-61.5"
             fill="none"
             stroke="#ffffff"
             stroke-linecap="round"
             stroke-linejoin="round"
             stroke-width="3" />
          <path
             id="path117"
             d="m 786.1,414.8 c 0,0 10.6,42.2 -0.9,75.7"
             fill="#bac5f4" />
          <path
             id="path119"
             d="m 810.2,229.6 c -3.2,-2.7 -7.7,0.9 -6,4.7 1.6,3.6 2.7,9.9 -3.7,16.6 -10.1,10.4 -46.3,45.6 -46,68.3 0.3,22.7 0,35.9 7.5,44.5 7.5,8.6 25,1.7 32.9,-16.6 7.9,-18.3 33.2,-26.1 32.8,-52.4 -0.4,-26.2 -3.9,-37.7 -7.5,-46.7 -2.2,-5.7 -5.8,-14.9 -10,-18.4 z"
             fill="#bac5f4" />
          <path
             id="path121"
             d="m 767.8,397.7 c 0,0 -11.8,-58.3 16.9,-93.4 11.5,-14 28.5,-42.1 28.4,-55.7"
             fill="none"
             stroke="#ffffff"
             stroke-linecap="round"
             stroke-linejoin="round"
             stroke-width="3" />
          <path
             id="path123"
             d="m 720.7,238.9 c 2.9,-2.8 7.1,1 5.6,4.9 -1.5,3.8 -2.5,10.3 3.5,17.3 9.3,10.9 42.9,47.7 42.6,71.4 -0.3,23.7 0,37.5 -7,46.6 -7,9.1 -23.1,1.8 -30.4,-17.4 -7.3,-19.2 -30.7,-27.3 -30.4,-54.7 0.3,-27.4 3.6,-39.4 6.9,-48.8 2,-5.9 5.3,-15.6 9.2,-19.3 z"
             fill="#e9edfb" />
          <path
             id="path125"
             d="m 758.4,398.7 c 0,0 13.5,-53 -13.1,-88 -10.6,-14 -27.7,-34.8 -27.5,-48.3"
             fill="none"
             stroke="#ffffff"
             stroke-linecap="round"
             stroke-linejoin="round"
             stroke-width="3" />
          <path
             id="path127"
             d="m 699.1,331.3 c 0,0 -27.8,0.6 -42.8,-33.1 -15,-33.7 18.8,-40.6 43.6,-22.5 24.8,18.1 14.7,25.6 44.3,42.3 29.6,16.7 23.2,49.8 14,58.6 -9.2,8.8 -26.6,22.5 -38.2,-13.3 -11.6,-35.8 -20.9,-32 -20.9,-32 z"
             fill="#b0c0f4" />
          <path
             id="path129"
             d="m 753.1,399.1 c 0,0 2,-84.4 -81.7,-107.6"
             fill="none"
             stroke="#ffffff"
             stroke-linecap="round"
             stroke-linejoin="round"
             stroke-width="3" />
          <path
             id="path131"
             d="m 741.2,400.3 c 0,0 34.1,-5.5 47.4,-2.6 13.3,2.9 -23.5,6.3 -23.5,6.3 0,0 -17.6,0.8 -23.9,-3.7 z"
             fill="#bac5f4" />
        </g>
        <path
           id="path134"
           d="m 327.8,409.2 c 0,0 -38.4,-30.3 -44.9,-60 -6.5,-29.7 7.6,-50.3 28.1,-53.5 20.5,-3.2 33,-13 104.9,11.4 71.9,24.4 154.7,-18.9 154.7,-18.9 0,0 67.6,-31.1 101,-23.5 38,8.6 46.1,31.6 35.8,72.7 -10.3,41.1 -45.3,72.2 -45.3,72.2 z"
           fill="#bac5f4" />
        <path
           id="path136"
           d="m 310.4,406 c 0,0 -6,0 -7,6 -1,6 1,25 4,31 3,6 17.1,5.7 17.1,5.7 L 667.4,448 c 0,0 11.4,0.1 14,-9 2.1,-7.3 5.1,-14.6 5.4,-19.7 a 11.487,11.487 0 0 0 -9.9,-12 84.211,84.211 0 0 0 -11.2,-0.7 c -26.1,0 -355.3,-0.6 -355.3,-0.6 z"
           fill="#bac5f4" />
        <path
           id="polygon138"
           d="m 294.4,499 23,-50 h 18 l -24,50 z"
           fill="#ffffff" />
        <path
           id="polygon140"
           d="m 648.4,449 21,51 15,-1 -20,-50 z"
           fill="#ffffff" />
        <path
           id="path142"
           d="m 333.7,406.6 c 0,0 -31.6,-24.4 -33.1,-34.5 -1.9,-13.2 10,-32.8 56.2,-24.1 46.2,8.7 127.7,32.2 171.9,20.2 44.2,-12 99.8,-62.4 103.8,-65.1 4,-2.7 51.3,-25.9 62,9.5 10.7,35.4 -32.5,93.6 -32.5,93.6 z"
           fill="#b0c0f4" />
        <path
           id="polygon144"
           d="m 487.4,0 1.3,67.7 1.6,-0.3 1.4,-67.4 z"
           fill="#bac5f4" />
        <path
           id="path146"
           d="m 453.1,123.2 c 0,0 -12.6,-56.5 37.3,-57.1 47.2,-0.5 35.1,60 35.1,60 z"
           fill="#bac5f4" />
        <path
           id="path148"
           d="m 452.6,123.2 c 0,0 40.1,-17.4 72.9,2.7 0,0 -34.5,18.3 -72.9,-2.7 z"
           fill="#ffffff" />
        <path
           id="path150"
           d="m 472,76.2 c 0,0 -17.5,6.5 -13.9,36.2"
           fill="#ffffff" />
        <path
           style="fill:url(#linear-gradient)"
           id="polygon157"
           d="M 452.6,123.2 417.2,250.5 562,249.1 525.5,125.9 Z"
           fill="url(#linear-gradient)" />
      </g>
      <g
         id="bag"
         transform="translate(-0.084)">
        <path
           style="fill:url(#linearGradient216)"
           id="path168"
           d="m 699.2,461.4 c 0,0 -11.1,40.3 -9.3,44.8 1.8,4.5 10.8,5.4 14.8,6.3 4,0.9 40.3,10.4 44,10.6 3.7,0.2 3.4,0.7 5,0.7 1.6,0 21.8,-6.8 22.5,-9.2 0.7,-2.4 1.3,-4 0.7,-7 -0.6,-3 -9.8,-41.4 -12.3,-42.2 -2.5,-0.8 -65.4,-4 -65.4,-4 z"
           fill="url(#linear-gradient-2)" />
        <path
           style="fill:url(#linear-gradient-3)"
           id="path175"
           d="m 697.3,468.6 c 0,0 0.8,-6.3 1.9,-7.2 1.1,-0.9 4.2,-5 7.2,-5.2 3,-0.2 51.3,5.9 53.1,6.3 1.8,0.4 4.2,1.3 5,2.8 0.8,1.5 -7,3.3 -8.5,8.1 -1.5,4.8 -29.1,14.9 -35.9,15.6 -6.8,0.7 -22.8,-20.4 -22.8,-20.4 z"
           fill="url(#linear-gradient-3)" />
        <path
           id="path177"
           d="m 713.1,457.8 c 0,0 5.2,-11.3 7.7,-13.4 2.2,-1.9 10.1,-6 14.9,0.1 5.4,6.9 4.9,14.9 4.9,15.9 0,1 -5.3,0.1 -5.3,0.1 0,0 1.7,-8.2 0.2,-11 -1.4,-2.6 -2.2,-5.7 -7.2,-5.4 -5,0.3 -6.8,3.1 -8.3,5.7 a 56.839,56.839 0 0 0 -3.2,8.1 c -0.2,0.3 -3.7,-0.1 -3.7,-0.1 z"
           fill="#7a5bf5" />
        <path
           id="path179"
           d="m 721.4,458.5 c 0,0 5.2,-13.8 7.7,-16.4 2.2,-2.3 10.6,-6.9 15.4,0.5 5.4,8.4 4.3,17.8 4.3,18.9 0,1.1 -5.3,0.2 -5.3,0.2 0,0 1.6,-10 0.1,-13.5 -1.4,-3.2 -2.2,-7 -7.1,-6.6 -4.9,0.4 -6.8,3.7 -8.3,7 a 81.7,81.7 0 0 0 -3.2,9.9 c 0,0.5 -3.6,0 -3.6,0 z"
           fill="#7a5bf5" />
        <path
           id="path181"
           d="m 753.9,476.2 c 0,0 -4.6,38.7 -4,41.3 0.6,2.6 2.1,6.3 3.2,6.3 1.1,0 2.9,-0.2 2.2,-1.1 a 15.755,15.755 0 0 1 -2.7,-11.3 c 0.7,-6.3 3.4,-38 3.4,-38 z"
           fill="#7a5bf5" />
        <circle
           id="circle183"
           cx="2.8"
           cy="2.8"
           r="2.8"
           transform="translate(716.1,486.2)"
           fill="#ffffff" />
      </g>
      <g
         id="g234"
         transform="translate(-0.084)">
        <g
           id="woman">
          <g
             id="g190">
            <path
               id="path186"
               d="m 527.2,416.4 c -2.9,-4.8 -5.2,-6 -12.3,-6.2 -7.1,-0.2 -16.5,-0.1 -16.5,-0.1 l -0.1,10.1 c 0,0 7.8,4.5 12,6.8 0.2,0.1 0.9,0.5 1.4,0.8 a 15.546,15.546 0 0 0 2.3,0.8 c 4.1,0.9 7.9,0.4 10.6,-2.2 2.9,-3 5.5,-5.2 2.6,-10 z"
               fill="#4b44be" />
            <path
               id="path188"
               d="m 473.7,407.5 c -0.2,0.2 -0.9,0.7 -1.3,1 a 13.722,13.722 0 0 0 -1.6,1.8 c -2.3,3.5 -3.4,7.1 -1.8,10.6 1.7,3.8 2.8,7.1 8.2,6.1 5.4,-0.9 7.5,-2.6 10.4,-9 2.9,-6.4 6.3,-15.3 6.2,-15.3 l -9.3,-3.8 c -0.1,0 -7.2,5.6 -10.8,8.6 z"
               fill="#4b44be" />
          </g>
          <path
             style="fill:url(#linear-gradient-4)"
             id="path197"
             d="m 499.1,410.5 c 0,0 0.1,10.2 -1.5,10.4 -1.7,0.2 -24.5,-3.1 -33.6,-3.5 -9.1,-0.5 -29.7,-6.4 -39.8,-17.8 -8.8,-9.9 -7.4,-20.8 -0.9,-20.8 6.5,0 12.4,-5.5 28.8,2.3 a 92.239,92.239 0 0 0 43.6,8.4 c 9.8,-0.8 37.2,-5.8 39.3,-7.4 2.1,-1.6 12.4,-6 26.7,-4.5 14.3,1.5 7.5,12.9 4.5,17.3 -4.2,6.1 -14.2,12.6 -22.6,12.9 -8.4,0.3 -44.5,2.7 -44.5,2.7 z"
             fill="url(#linear-gradient-4)" />
          <path
             style="fill:url(#linear-gradient-5)"
             id="path206"
             d="m 482.1,232.8 c -4.8,1.8 -10.9,25.6 -10.9,25.6 l -0.1,-0.1 -0.7,3.3 -0.8,4.3 1.6,25.9 15.6,7.8 35.7,9.6 9.9,14.1 c 0,0 22.1,22.5 22.3,24.1 0.1,1.6 -23.8,9.5 -26.1,9.8 -5.5,0.8 35.2,-9.1 22.1,-24.9 -5.5,-6.8 -13.7,-27.1 -29.8,-40.6 -9.3,-7.8 -6.7,-29.9 -10,-43.9 -4.1,-17.5 -6.7,-22.8 -10.8,-22.8 -3.7,0 -8.9,4.4 -18,7.8"
             fill="url(#linear-gradient-5)" />
          <path
             style="fill:url(#linear-gradient-6)"
             id="path213"
             d="m 532.7,289.4 c -7.5,-6.9 -10,-8.5 -16.6,-6.2 -6.6,2.3 -9.8,4.5 -18.7,5.9 a 28.48,28.48 0 0 1 -16.3,-2 l -18.4,1.8 c -2.3,-0.3 -28.5,48.9 -29.2,59.1 -0.4,6.3 13.9,16 17.8,16.9 1.6,0.4 4.5,-15.1 5.4,-16.5 l -6,-1.8 a 95.078,95.078 0 0 1 7.1,-12.8 c 0.7,-1.1 6.4,-10.5 7.2,-14.1 0.1,0.3 1,7.1 1.8,9.3 1.5,4 3.5,6.3 3.5,9.5 0,3.2 -0.4,16 -2.7,21.7 -2.3,5.7 -5.7,19 -5.7,19 l 58.9,-0.3 c 0,0 -2.1,-25.3 -1.3,-34 a 16.511,16.511 0 0 1 0.8,-8.6 c 2.9,-8.4 3.7,-20.8 3.2,-22.8 -0.7,-3.1 17.3,22.9 21.3,29.4 1.7,2.7 -20.8,7.5 -22.6,9.6 -1.9,2.2 1.9,8.1 1.9,8.1 0,0 39.1,-4.8 38.9,-10.7 -0.2,-5.9 -21.6,-52.6 -30.3,-60.5 z"
             fill="url(#linear-gradient-6)" />
          <path
             style="fill:url(#linear-gradient-7)"
             id="path220"
             d="m 486.8,218.8 a 15.861,15.861 0 0 0 -14.1,11.9 c -3.2,11.5 -3.6,27.5 -3.7,30 -0.1,2.6 1.1,18 -4.8,24.4 -5.1,5.5 -3,10.9 -4.3,15.3 l -0.6,7.3 a 2.247,2.247 0 0 0 1.6,1.9 c 0.8,0.2 3.5,-1 4,-1.2 6.8,-2.7 6.8,-4.9 9.4,-7.1 2.1,-1.8 8,-6 9.8,-7.6 1.8,-1.7 3,-3.1 3.1,-5.2 0.3,-10.6 -1.5,-20.5 -3.8,-25.7 -2.3,-5.2 -6.8,-14 -3.1,-19.8 3.7,-5.8 10.5,-11.7 10.9,-13.1 0.4,-1.4 0.6,5.6 4.7,8.1 4.1,2.5 7.6,5.9 8.9,9.3 1.1,2.8 2.5,7.6 -1.4,16 -3.9,8.3 -7.1,19 -1.6,26.9 5.5,7.9 17.1,16.5 19,20.5 2.1,4.4 0.1,14.8 -0.3,21.1 -0.4,6.3 12.3,-10.9 11.9,-19.1 -0.4,-8.2 1,-11.7 -6.9,-24.2 -7.9,-12.5 -12.9,-34 -13.1,-39.2 -0.2,-5.2 -2.5,-19.6 -7.2,-23.8 -4.1,-3.5 -5,-6.9 -13.3,-6.9 a 28.645,28.645 0 0 0 -5.1,0.2"
             fill="url(#linear-gradient-7)" />
          <path
             id="path222"
             d="m 461.9,392.7 55.2,0.3 c 0,0 -6.5,5.1 -9.6,5.6 -3.1,0.5 -16.4,7.2 -21.4,4.7 -3.4,-1.9 -24.2,-10.6 -24.2,-10.6 z"
             opacity="0.07" />
          <path
             id="path224"
             d="m 492.7,268.6 c 0,0 5.2,1.3 7.3,-1.7 4.8,-6.8 0.4,3.5 0.4,3.5 0,0 -1.4,4 -1.3,6 0.1,2 -5.5,-7.5 -6.4,-7.8"
             opacity="0.07" />
          <path
             id="path226"
             d="m 472.1,303.6 c -0.6,0.8 -1.6,1.4 -2,3.4 -0.8,3.2 -1.7,6.8 -3.9,10.1 -1.3,1.9 -0.6,9.5 1.6,14.2 0.6,1.4 2.6,4.9 2.5,5.7 l -0.1,6.9 h 5.9 c 0,0 5.1,0.5 4,-3.6 -0.9,-3.7 -5.7,-17.5 -2.5,-20.5 6.1,-5.6 -1.6,-16.8 1.3,-20.4 2.5,-3.1 6,-5.3 6,-6.4 0,-0.4 -0.9,0.9 -1.6,1.3 a 24.7,24.7 0 0 1 -2.9,2.2 47.311,47.311 0 0 0 -3.9,2.8 35.974,35.974 0 0 0 -4.4,4.3 z"
             opacity="0.07" />
        </g>
        <g
           id="laptop">
          <path
             id="path229"
             d="m 449,347.9 c 0,0 0,-3.6 3.5,-3.7 3.5,-0.1 78.7,0 78.7,0 0,0 3.3,0.4 3.4,3.1 0.1,2.7 0.1,42.4 0.1,42.4 a 3.182,3.182 0 0 1 -3.2,3.2 c -3.2,0.1 -79.9,0.1 -79.9,0.1 a 3.673,3.673 0 0 1 -2.8,-3.6 c 0,-3 0.2,-41.5 0.2,-41.5 z"
             fill="#ffffff" />
          <circle
             id="circle231"
             cx="3.3"
             cy="3.3"
             r="3.3"
             transform="translate(488.7,365.2)"
             fill="#76c6e7" />
        </g>
      </g>
    </g>
  </g>
</svg>
