<?xml version="1.0" encoding="UTF-8" standalone="no"?>
<svg
   xmlns:dc="http://purl.org/dc/elements/1.1/"
   xmlns:cc="http://creativecommons.org/ns#"
   xmlns:rdf="http://www.w3.org/1999/02/22-rdf-syntax-ns#"
   xmlns:svg="http://www.w3.org/2000/svg"
   xmlns="http://www.w3.org/2000/svg"
   id="svg838"
   version="1.1"
   viewBox="0 0 40 40"
   height="40"
   width="40">
  <metadata
     id="metadata844">
    <rdf:RDF>
      <cc:Work
         rdf:about="">
        <dc:format>image/svg+xml</dc:format>
        <dc:type
           rdf:resource="http://purl.org/dc/dcmitype/StillImage" />
        <dc:title></dc:title>
      </cc:Work>
    </rdf:RDF>
  </metadata>
  <defs
     id="defs842" />
  <g
     stroke-linejoin="round"
     fill="rgba(0,0,0,0)"
     transform="translate(-2.578 -1.313)"
     data-name="Path 15"
     id="Path_15">
    <path
       style="stroke-width:1;stroke-miterlimit:4;stroke-dasharray:none;fill:#64ffff;fill-opacity:1"
       id="path833"
       stroke="none"
       d="M 41.82434463500977 40.81313323974609 L 36.57451248168945 40.81313323974609 L 31.98586654663086 29.08614349365234 L 31.86151695251465 28.76833343505859 L 31.5202465057373 28.76833343505859 L 13.27256679534912 28.76833343505859 L 12.93446731567383 28.76833343505859 L 12.80853748321533 29.08211326599121 L 8.100604057312012 40.81313323974609 L 3.329931259155273 40.81313323974609 L 19.70746421813965 1.813133239746094 L 25.3874340057373 1.813133239746094 L 41.82434463500977 40.81313323974609 Z M 22.05526733398438 5.631173133850098 L 21.93080711364746 5.948733329772949 L 14.61956691741943 24.6041431427002 L 14.35211753845215 25.28658294677734 L 15.08509731292725 25.28658294677734 L 29.70731735229492 25.28658294677734 L 30.43587684631348 25.28658294677734 L 30.17386817932129 24.60676383972168 L 22.98373794555664 5.951353073120117 L 22.86032676696777 5.631173133850098 L 22.51718711853027 5.631173133850098 L 22.39633750915527 5.631173133850098 L 22.05526733398438 5.631173133850098 Z" />
    <path
       id="path835"
       stroke="none"
       d="M 41.07102203369141 40.31313323974609 L 25.05557060241699 2.313133239746094 L 20.03979110717773 2.313133239746094 L 4.082195281982422 40.31313323974609 L 7.762507915496826 40.31313323974609 L 12.34451770782471 28.89588356018066 C 12.496657371521 28.51678276062012 12.8640775680542 28.26833343505859 13.27256679534912 28.26833343505859 L 31.5202465057373 28.26833343505859 C 31.93189811706543 28.26833343505859 32.30149841308594 28.52059364318848 32.45149612426758 28.90394401550293 L 36.91579055786133 40.31313323974609 L 41.07102203369141 40.31313323974609 M 22.39633750915527 5.131173133850098 L 22.51718711853027 5.131173133850098 C 22.93070793151855 5.131173133850098 23.30156707763672 5.385693073272705 23.45027732849121 5.771543025970459 L 30.64040756225586 24.42695236206055 C 30.75893783569336 24.73449325561523 30.71832656860352 25.0806827545166 30.53182792663574 25.3524341583252 C 30.34532737731934 25.62418365478516 30.03690719604492 25.78658294677734 29.70731735229492 25.78658294677734 L 15.08509731292725 25.78658294677734 C 14.75450706481934 25.78658294677734 14.44528770446777 25.62320327758789 14.25899696350098 25.3501033782959 C 14.0727071762085 25.07700347900391 14.03341770172119 24.72948265075684 14.1540470123291 24.42169380187988 L 21.46528816223145 5.76628303527832 C 21.61541748046875 5.383193016052246 21.98487663269043 5.131173133850098 22.39633750915527 5.131173133850098 M 42.57766723632812 41.31313323974609 L 36.23324584960938 41.31313323974609 L 31.5202465057373 29.26833343505859 L 13.27256679534912 29.26833343505859 L 8.43870735168457 41.31313323974609 L 2.577667236328125 41.31313323974609 L 19.37513732910156 1.313133239746094 L 25.71929740905762 1.313133239746094 L 42.57766723632812 41.31313323974609 Z M 29.70731735229492 24.78658294677734 L 22.51718711853027 6.131173133850098 L 22.39633750915527 6.131173133850098 L 15.08509731292725 24.78658294677734 L 29.70731735229492 24.78658294677734 Z" />
  </g>
</svg>
