<svg xmlns="http://www.w3.org/2000/svg" xmlns:xlink="http://www.w3.org/1999/xlink" width="897.442" height="703.106" viewBox="0 0 897.442 703.106">
  <defs>
    <linearGradient id="linear-gradient" x1="5.641" y1="-26.206" x2="4.64" y2="-26.206" gradientUnits="objectBoundingBox">
      <stop offset="0" stop-color="#fff"/>
      <stop offset="1" stop-color="#94dbef"/>
    </linearGradient>
    <linearGradient id="linear-gradient-2" y1="1.407" x2="0.999" y2="1.407" gradientUnits="objectBoundingBox">
      <stop offset="0" stop-color="#f87b58"/>
      <stop offset="0.5" stop-color="#f8c548"/>
      <stop offset="1" stop-color="#f89c51"/>
    </linearGradient>
    <linearGradient id="linear-gradient-3" y1="-3.309" x2="0.999" y2="-3.309" gradientUnits="objectBoundingBox">
      <stop offset="0" stop-color="#e5a4ed"/>
      <stop offset="1" stop-color="#7a5bf5"/>
    </linearGradient>
    <linearGradient id="linear-gradient-4" x1="0.002" y1="-1.766" x2="1.676" y2="-1.772" gradientUnits="objectBoundingBox">
      <stop offset="0" stop-color="#fff"/>
      <stop offset="0.631" stop-color="#d6f2fa" stop-opacity="0.592"/>
      <stop offset="1" stop-color="#cdf1fc"/>
    </linearGradient>
  </defs>
  <g id="Group_1" data-name="Group 1" transform="translate(-8.864 54.9)">
    <path id="blob1" d="M762.346-52.273c61.786,36.355,59.157,137.453,49.3,216.638s-26.949,135.461-30.236,211.657,7.23,171.816-46.011,219.128c-53.241,46.814-170.24,44.822-267.52,24.4-97.28-19.921-175.5-59.264-279.351-93.627C85.33,491.562-44.815,461.182-73.736,403.911S-31.669,261.976,24.2,186.277c55.213-75.7,95.965-142.433,163.667-176.8C256.227-25.38,352.193-27.87,463.276-43.807S701.218-88.628,762.346-52.273Z" transform="translate(89.28 14.925)" fill="#f4f4ff"/>
    <g id="books">
      <path id="Path_3" data-name="Path 3" d="M228.224,94H192.771c-.7.4-54.771,74.075-55.471,74.375V182.4l-.4,242.9,211.5-2.6L346.8,93.5l-64.4.5Z" fill="#e9edfb"/>
      <path id="Path_4" data-name="Path 4" d="M155,143.574V182.4l172.5-1-.7-62.1c-76.371,0-90.8-.63-117.6,0-8.15.191-31.868-.1-31.859,0,.067-.04-8.883.058-14.207,0-1.4-.017,12.322.132,10.35,0C172.658,119.237,156.167,142.945,155,143.574Z" fill="#b0c0f4"/>
      <path id="Path_5" data-name="Path 5" d="M155.1,192.5v61.3l172.7-.3v-61Z" fill="#b0c0f4"/>
      <path id="Path_6" data-name="Path 6" d="M155.6,264.8v61.3l172.6-.4.1-60.9Z" fill="#b0c0f4"/>
      <path id="Path_7" data-name="Path 7" d="M156.5,338.1v61.3l172.7-.3v-61Z" fill="#b0c0f4"/>
      <path id="Path_8" data-name="Path 8" d="M215.2,299.6l8.1-10.6,30.1,26.8-7.6,10.9Z" fill="#fff"/>
      <path id="Path_9" data-name="Path 9" d="M155.5,276.7l19.5.1.1,49.4-19.5-.2Z" fill="#fff"/>
      <path id="Path_10" data-name="Path 10" d="M198.1,285.1l8-4.5,20.3,40.6-7.9,5.4Z" fill="#f5f5fc"/>
      <path id="Path_11" data-name="Path 11" d="M188.7,271.3h9.5l.2,55.1-9.7-.3Z" fill="#fff"/>
      <path id="Path_12" data-name="Path 12" d="M175.1,288.1l13.8.3-.2,37.9-13.8-.3Z" fill="#f5f5fc"/>
      <path id="Path_13" data-name="Path 13" d="M250.7,276.6l19.4.1.2,49.4-19.6-.3Z" fill="#fff"/>
      <path id="Path_14" data-name="Path 14" d="M283.9,271.2h9.4l.3,55-9.8-.2Z" fill="#fff"/>
      <path id="Path_15" data-name="Path 15" d="M270.3,288l13.8.2-.3,37.9-13.8-.2Z" fill="#f5f5fc"/>
      <path id="Path_16" data-name="Path 16" d="M156.5,343.2l14.9.1.1,56.6-14.9-.3Z" fill="#fff"/>
      <path id="Path_17" data-name="Path 17" d="M171.4,351.7l10.1-.1-.3,48.1-10-.1Z" fill="#f5f5fc"/>
      <path id="Path_18" data-name="Path 18" d="M181.5,361.6l13.7.2-.3,37.9-13.8-.2Z" fill="#fff"/>
      <path id="Path_19" data-name="Path 19" d="M265.5,174.1v7.1l55.2.4v-7.5Z" fill="#f5f5fc"/>
      <path id="Path_20" data-name="Path 20" d="M265.4,168.5l.2,5.7,36,.2-.3-6.1Z" fill="#fff"/>
      <path id="Path_21" data-name="Path 21" d="M155.2,204.4l19.5.1.1,49.4-19.6-.3Z" fill="#fff"/>
      <path id="Path_22" data-name="Path 22" d="M306.9,212.3l-8.2-4.5-21.1,40.6,8.3,5.3Z" fill="#f5f5fc"/>
      <path id="Path_23" data-name="Path 23" d="M318.5,198.5H328l.2,55-9.7-.2Z" fill="#fff"/>
      <path id="Path_24" data-name="Path 24" d="M305.5,215.6l13.8.2-.2,37.9-13.8-.2Z" fill="#f5f5fc"/>
      <path id="Path_25" data-name="Path 25" d="M212.6,246.6v7.1l55.2.4v-7.5Z" fill="#f5f5fc"/>
      <path id="Path_26" data-name="Path 26" d="M221.2,240.8l.3,5.7,36,.2-.3-6.1Z" fill="#fff"/>
    </g>
    <g id="flower" transform="translate(15 -66)">
      <path id="Path_27" data-name="Path 27" d="M745.5,495.6s-16.6,19.6-3,20.1,41.5,16.3,46.8,2.2,16-21.2,9.5-22.8-12.4-8.2-26.1-7.1S745.5,495.6,745.5,495.6Z" fill="#f5f5fc"/>
      <path id="Path_28" data-name="Path 28" d="M741.2,400.3s-7.8.8-7.8,10.5,5,93.1,24,94.8a204.911,204.911,0,0,0,31.9.4c2.8-.3,5.5-8.7,6-12.1,2.5-16.6,5.7-57,6.4-80.5.1-4.8-3.1-11.1-4.8-12.7C787.4,392,741.2,400.3,741.2,400.3Z" fill="#e1e6fb"/>
      <path id="Path_29" data-name="Path 29" d="M833.1,238.9c-3-2.8-7.2,1-5.6,4.9,1.5,3.8,2.6,10.3-3.5,17.3-9.4,10.9-43.3,47.7-42.9,71.4s-7,30.3,0,39.3,35.2,8.7,42.6-10.5,26.1-26.9,25.7-54.3-3.6-39.4-7-48.8C840.4,252.3,837,242.6,833.1,238.9Z" fill="#e9edfb"/>
      <path id="Path_30" data-name="Path 30" d="M781.8,396.8s3-42.9,36.5-61.6c21-11.7,22.4-52.3,17.4-61.5" fill="none" stroke="#fff" stroke-linecap="round" stroke-linejoin="round" stroke-width="3"/>
      <path id="Path_31" data-name="Path 31" d="M786.1,414.8s10.6,42.2-.9,75.7" fill="#bac5f4"/>
      <path id="Path_32" data-name="Path 32" d="M810.2,229.6c-3.2-2.7-7.7.9-6,4.7,1.6,3.6,2.7,9.9-3.7,16.6-10.1,10.4-46.3,45.6-46,68.3s0,35.9,7.5,44.5,25,1.7,32.9-16.6,33.2-26.1,32.8-52.4c-.4-26.2-3.9-37.7-7.5-46.7C818,242.3,814.4,233.1,810.2,229.6Z" fill="#bac5f4"/>
      <path id="Path_33" data-name="Path 33" d="M767.8,397.7s-11.8-58.3,16.9-93.4c11.5-14,28.5-42.1,28.4-55.7" fill="none" stroke="#fff" stroke-linecap="round" stroke-linejoin="round" stroke-width="3"/>
      <path id="Path_34" data-name="Path 34" d="M720.7,238.9c2.9-2.8,7.1,1,5.6,4.9-1.5,3.8-2.5,10.3,3.5,17.3,9.3,10.9,42.9,47.7,42.6,71.4s0,37.5-7,46.6-23.1,1.8-30.4-17.4-30.7-27.3-30.4-54.7,3.6-39.4,6.9-48.8C713.5,252.3,716.8,242.6,720.7,238.9Z" fill="#e9edfb"/>
      <path id="Path_35" data-name="Path 35" d="M758.4,398.7s13.5-53-13.1-88c-10.6-14-27.7-34.8-27.5-48.3" fill="none" stroke="#fff" stroke-linecap="round" stroke-linejoin="round" stroke-width="3"/>
      <path id="Path_36" data-name="Path 36" d="M699.1,331.3s-27.8.6-42.8-33.1,18.8-40.6,43.6-22.5,14.7,25.6,44.3,42.3,23.2,49.8,14,58.6-26.6,22.5-38.2-13.3S699.1,331.3,699.1,331.3Z" fill="#b0c0f4"/>
      <path id="Path_37" data-name="Path 37" d="M753.1,399.1s2-84.4-81.7-107.6" fill="none" stroke="#fff" stroke-linecap="round" stroke-linejoin="round" stroke-width="3"/>
      <path id="Path_38" data-name="Path 38" d="M741.2,400.3s34.1-5.5,47.4-2.6-23.5,6.3-23.5,6.3S747.5,404.8,741.2,400.3Z" fill="#bac5f4"/>
    </g>
    <path id="Path_44" data-name="Path 44" d="M487.4,0l1.3,67.7,1.6-.3L491.7,0Z" fill="#bac5f4"/>
    <path id="Path_45" data-name="Path 45" d="M453.1,123.2s-12.6-56.5,37.3-57.1c47.2-.5,35.1,60,35.1,60Z" fill="#bac5f4"/>
    <path id="Path_46" data-name="Path 46" d="M452.6,123.2s40.1-17.4,72.9,2.7C525.5,125.9,491,144.2,452.6,123.2Z" fill="#fff"/>
    <path id="Path_47" data-name="Path 47" d="M472,76.2s-17.5,6.5-13.9,36.2" fill="#fff"/>
    <g id="example-9" transform="translate(4.76 8.436)">
      <g id="Group_1-2" data-name="Group 1">
        <path id="Path_39" data-name="Path 39" d="M327.8,409.2s-38.4-30.3-44.9-60,7.6-50.3,28.1-53.5,33-13,104.9,11.4,154.7-18.9,154.7-18.9,67.6-31.1,101-23.5c38,8.6,46.1,31.6,35.8,72.7s-45.3,72.2-45.3,72.2Z" fill="#bac5f4"/>
        <path id="Path_40" data-name="Path 40" d="M310.4,406s-6,0-7,6,1,25,4,31,17.1,5.7,17.1,5.7l342.9-.7s11.4.1,14-9c2.1-7.3,5.1-14.6,5.4-19.7a11.487,11.487,0,0,0-9.9-12,84.207,84.207,0,0,0-11.2-.7C639.6,406.6,310.4,406,310.4,406Z" fill="#bac5f4"/>
        <path id="Path_41" data-name="Path 41" d="M294.4,499l23-50h18l-24,50Z" fill="#fff"/>
        <path id="Path_42" data-name="Path 42" d="M648.4,449l21,51,15-1-20-50Z" fill="#fff"/>
        <path id="Path_43" data-name="Path 43" d="M333.7,406.6s-31.6-24.4-33.1-34.5c-1.9-13.2,10-32.8,56.2-24.1s127.7,32.2,171.9,20.2,99.8-62.4,103.8-65.1,51.3-25.9,62,9.5S662,406.2,662,406.2Z" fill="#b0c0f4"/>
      </g>
      <g id="Group_3" data-name="Group 3">
        <g id="woman">
          <g id="Group_2" data-name="Group 2">
            <path id="Path_54" data-name="Path 54" d="M527.2,416.4c-2.9-4.8-5.2-6-12.3-6.2s-16.5-.1-16.5-.1l-.1,10.1s7.8,4.5,12,6.8c.2.1.9.5,1.4.8a15.549,15.549,0,0,0,2.3.8c4.1.9,7.9.4,10.6-2.2C527.5,423.4,530.1,421.2,527.2,416.4Z" fill="#4b44be"/>
            <path id="Path_55" data-name="Path 55" d="M473.7,407.5c-.2.2-.9.7-1.3,1a13.718,13.718,0,0,0-1.6,1.8c-2.3,3.5-3.4,7.1-1.8,10.6,1.7,3.8,2.8,7.1,8.2,6.1,5.4-.9,7.5-2.6,10.4-9s6.3-15.3,6.2-15.3l-9.3-3.8C484.4,398.9,477.3,404.5,473.7,407.5Z" fill="#4b44be"/>
          </g>
          <path id="Path_56" data-name="Path 56" d="M499.1,410.5s.1,10.2-1.5,10.4c-1.7.2-24.5-3.1-33.6-3.5-9.1-.5-29.7-6.4-39.8-17.8-8.8-9.9-7.4-20.8-.9-20.8s12.4-5.5,28.8,2.3a92.24,92.24,0,0,0,43.6,8.4c9.8-.8,37.2-5.8,39.3-7.4s12.4-6,26.7-4.5,7.5,12.9,4.5,17.3c-4.2,6.1-14.2,12.6-22.6,12.9S499.1,410.5,499.1,410.5Z" opacity="0.592" fill="url(#linear-gradient)"/>
          <path id="Path_57" data-name="Path 57" d="M482.1,232.8c-4.8,1.8-10.9,25.6-10.9,25.6l-.1-.1-.7,3.3-.8,4.3,1.6,25.9,15.6,7.8,35.7,9.6,9.9,14.1s22.1,22.5,22.3,24.1c.1,1.6-23.8,9.5-26.1,9.8-5.5.8,35.2-9.1,22.1-24.9-5.5-6.8-13.7-27.1-29.8-40.6-9.3-7.8-6.7-29.9-10-43.9-4.1-17.5-6.7-22.8-10.8-22.8-3.7,0-8.9,4.4-18,7.8" fill="url(#linear-gradient-2)"/>
          <path id="Path_58" data-name="Path 58" d="M532.7,289.4c-7.5-6.9-10-8.5-16.6-6.2s-9.8,4.5-18.7,5.9a28.48,28.48,0,0,1-16.3-2l-18.4,1.8c-2.3-.3-28.5,48.9-29.2,59.1-.4,6.3,13.9,16,17.8,16.9,1.6.4,4.5-15.1,5.4-16.5l-6-1.8a95.082,95.082,0,0,1,7.1-12.8c.7-1.1,6.4-10.5,7.2-14.1.1.3,1,7.1,1.8,9.3,1.5,4,3.5,6.3,3.5,9.5s-.4,16-2.7,21.7-5.7,19-5.7,19l58.9-.3s-2.1-25.3-1.3-34a16.511,16.511,0,0,1,.8-8.6c2.9-8.4,3.7-20.8,3.2-22.8-.7-3.1,17.3,22.9,21.3,29.4,1.7,2.7-20.8,7.5-22.6,9.6-1.9,2.2,1.9,8.1,1.9,8.1s39.1-4.8,38.9-10.7S541.4,297.3,532.7,289.4Z" fill="url(#linear-gradient-3)"/>
          <path id="Path_59" data-name="Path 59" d="M486.8,218.8a15.861,15.861,0,0,0-14.1,11.9c-3.2,11.5-3.6,27.5-3.7,30-.1,2.6,1.1,18-4.8,24.4-5.1,5.5-3,10.9-4.3,15.3l-.6,7.3a2.247,2.247,0,0,0,1.6,1.9c.8.2,3.5-1,4-1.2,6.8-2.7,6.8-4.9,9.4-7.1,2.1-1.8,8-6,9.8-7.6,1.8-1.7,3-3.1,3.1-5.2.3-10.6-1.5-20.5-3.8-25.7s-6.8-14-3.1-19.8,10.5-11.7,10.9-13.1.6,5.6,4.7,8.1,7.6,5.9,8.9,9.3c1.1,2.8,2.5,7.6-1.4,16-3.9,8.3-7.1,19-1.6,26.9s17.1,16.5,19,20.5c2.1,4.4.1,14.8-.3,21.1s12.3-10.9,11.9-19.1,1-11.7-6.9-24.2-12.9-34-13.1-39.2-2.5-19.6-7.2-23.8c-4.1-3.5-5-6.9-13.3-6.9a28.656,28.656,0,0,0-5.1.2" opacity="0.437" fill="url(#linear-gradient-4)"/>
          <path id="Path_60" data-name="Path 60" d="M461.9,392.7l55.2.3s-6.5,5.1-9.6,5.6-16.4,7.2-21.4,4.7C482.7,401.4,461.9,392.7,461.9,392.7Z" opacity="0.07"/>
          <path id="Path_61" data-name="Path 61" d="M492.7,268.6s5.2,1.3,7.3-1.7c4.8-6.8.4,3.5.4,3.5s-1.4,4-1.3,6-5.5-7.5-6.4-7.8" opacity="0.07"/>
          <path id="Path_62" data-name="Path 62" d="M472.1,303.6c-.6.8-1.6,1.4-2,3.4-.8,3.2-1.7,6.8-3.9,10.1-1.3,1.9-.6,9.5,1.6,14.2.6,1.4,2.6,4.9,2.5,5.7l-.1,6.9h5.9s5.1.5,4-3.6c-.9-3.7-5.7-17.5-2.5-20.5,6.1-5.6-1.6-16.8,1.3-20.4,2.5-3.1,6-5.3,6-6.4,0-.4-.9.9-1.6,1.3a24.7,24.7,0,0,1-2.9,2.2,47.306,47.306,0,0,0-3.9,2.8,35.973,35.973,0,0,0-4.4,4.3Z" opacity="0.07"/>
        </g>
        <g id="laptop">
          <path id="Path_63" data-name="Path 63" d="M449,347.9s0-3.6,3.5-3.7,78.7,0,78.7,0,3.3.4,3.4,3.1.1,42.4.1,42.4a3.182,3.182,0,0,1-3.2,3.2c-3.2.1-79.9.1-79.9.1a3.673,3.673,0,0,1-2.8-3.6C448.8,386.4,449,347.9,449,347.9Z" fill="#fff"/>
          <circle id="Ellipse_2" data-name="Ellipse 2" cx="3.3" cy="3.3" r="3.3" transform="translate(488.7 365.2)" fill="#76c6e7"/>
        </g>
      </g>
    </g>
  </g>
</svg>
