<?xml version="1.0" encoding="UTF-8" standalone="no"?>
<svg
   xmlns:dc="http://purl.org/dc/elements/1.1/"
   xmlns:cc="http://creativecommons.org/ns#"
   xmlns:rdf="http://www.w3.org/1999/02/22-rdf-syntax-ns#"
   xmlns:svg="http://www.w3.org/2000/svg"
   xmlns="http://www.w3.org/2000/svg"
   width="512"
   height="512"
   viewBox="0 0 512 512"
   version="1.1"
   id="svg838">
  <metadata
     id="metadata844">
    <rdf:RDF>
      <cc:Work
         rdf:about="">
        <dc:format>image/svg+xml</dc:format>
        <dc:type
           rdf:resource="http://purl.org/dc/dcmitype/StillImage" />
        <dc:title></dc:title>
      </cc:Work>
    </rdf:RDF>
  </metadata>
  <defs
     id="defs842" />
  <g
     id="Path_15"
     data-name="Path 15"
     transform="matrix(12.8,0,0,12.8,-32.994473,-16.807972)"
     fill="rgba(0,0,0,0)"
     stroke-linejoin="round">
    <path
       d="m 41.824345,40.813133 h -5.249833 l -4.588645,-11.72699 -0.12435,-0.31781 h -0.34127 -18.24768 -0.3381 l -0.12593,0.31378 -4.7079329,11.73102 H 3.3299313 L 19.707464,1.8131332 h 5.67997 z M 22.055267,5.6311731 l -0.12446,0.3175602 -7.31124,18.6554097 -0.267449,0.68244 h 0.732979 14.62222 0.72856 l -0.262009,-0.679819 -7.19013,-18.6554109 -0.123411,-0.32018 h -0.34314 -0.120849 z"
       stroke="none"
       id="path833"
       style="fill:#64ffff;fill-opacity:1;stroke-width:1;stroke-miterlimit:4;stroke-dasharray:none" />
    <path
       d="M 41.071022,40.313133 25.055571,2.3131332 h -5.01578 L 4.0821953,40.313133 H 7.7625079 L 12.344518,28.895884 c 0.152139,-0.379101 0.51956,-0.627551 0.928049,-0.627551 h 18.24768 c 0.411651,0 0.781251,0.252261 0.931249,0.635611 l 4.464295,11.409189 h 4.155231 M 22.396338,5.1311731 h 0.120849 c 0.413521,0 0.78438,0.25452 0.93309,0.6403699 l 7.190131,18.655409 c 0.11853,0.307541 0.07792,0.653731 -0.10858,0.925482 -0.186501,0.27175 -0.494921,0.434149 -0.824511,0.434149 h -14.62222 c -0.33059,0 -0.639809,-0.16338 -0.8261,-0.43648 -0.18629,-0.2731 -0.225579,-0.62062 -0.10495,-0.928409 L 21.465288,5.766283 c 0.150129,-0.38309 0.519589,-0.6351099 0.93105,-0.6351099 M 42.577667,41.313133 h -6.344421 l -4.712999,-12.0448 h -18.24768 l -4.8338596,12.0448 H 2.5776672 L 19.375137,1.3131332 h 6.34416 z M 29.707317,24.786583 22.517187,6.1311731 H 22.396338 L 15.085097,24.786583 Z"
       stroke="none"
       id="path835" />
  </g>
</svg>
