<?xml version="1.0" encoding="UTF-8" standalone="no"?>
<!DOCTYPE svg PUBLIC "-//W3C//DTD SVG 1.1//EN" "http://www.w3.org/Graphics/SVG/1.1/DTD/svg11.dtd">
<svg version="1.1" xmlns="http://www.w3.org/2000/svg" xmlns:xlink="http://www.w3.org/1999/xlink" preserveAspectRatio="xMidYMid meet" viewBox="0 0 512 512" width="512" height="512"><defs><path d="M512 68.15C512 156.93 512 355.07 512 443.85C512 481.48 481.48 512 443.85 512C355.07 512 156.93 512 68.15 512C30.52 512 0 481.48 0 443.85C0 355.07 0 156.93 0 68.15C0 30.52 30.52 0 68.15 0C156.93 0 355.07 0 443.85 0C481.48 0 512 30.52 512 68.15Z" id="c8q9iHjW2"></path><path d="M41.83 358.71L89.75 396.85L197.22 263.27L320.46 324.61L459.42 151.45L411.49 113.31L304.03 246.89L180.79 185.55L41.83 358.71Z" id="a1Lo0cKB0D"></path><path d="M41.83 358.71L89.75 396.85L197.22 263.27L320.46 324.61L459.42 151.45L411.49 113.31L304.03 246.89L180.79 185.55L41.83 358.71Z" id="e4NzMocTRy"></path></defs><g><g><g><use xlink:href="#c8q9iHjW2" opacity="1" fill="#ff6060" fill-opacity="1"></use><g><use xlink:href="#c8q9iHjW2" opacity="1" fill-opacity="0" stroke="#000000" stroke-width="1" stroke-opacity="0"></use></g></g><g><use xlink:href="#a1Lo0cKB0D" opacity="1" fill="#ffffff" fill-opacity="1"></use><g><use xlink:href="#a1Lo0cKB0D" opacity="1" fill-opacity="0" stroke="#000000" stroke-width="1" stroke-opacity="0"></use></g></g><g><use xlink:href="#e4NzMocTRy" opacity="1" fill="#000000" fill-opacity="0"></use><g><use xlink:href="#e4NzMocTRy" opacity="1" fill-opacity="0" stroke="#000000" stroke-width="1" stroke-opacity="0"></use></g></g></g></g></svg>